<svg xmlns="http://www.w3.org/2000/svg" viewBox="0 0 800 640" preserveAspectRatio="xMidYMid slice" role="img" aria-label="Placeholder slab image">
  <defs>
    <linearGradient id="w3" x1="0" y1="0" x2="0" y2="1">
      <stop offset="0" stop-color="#32241A"/><stop offset="0.55" stop-color="#423020"/><stop offset="1" stop-color="#32241A"/>
    </linearGradient>
    <linearGradient id="r3" x1="0" y1="0" x2="1" y2="0">
      <stop offset="0" stop-color="#3E2A4A"/><stop offset="0.5" stop-color="#7A5B99"/><stop offset="1" stop-color="#3E2A4A"/>
    </linearGradient>
  </defs>
  <rect width="800" height="640" fill="url(#w3)"/>
  <g stroke-width="1.6" fill="none" opacity="0.5" stroke="#423020">
    <path d="M0 90 C 200 70, 400 115, 800 85" stroke="#553E29"/>
    <path d="M0 150 C 220 130, 440 175, 800 145" stroke="#553E29"/>
    <path d="M0 210 C 190 192, 380 235, 800 205" stroke="#4A3524"/>
    <path d="M0 430 C 210 410, 420 455, 800 425" stroke="#553E29"/>
    <path d="M0 490 C 230 472, 460 512, 800 485" stroke="#4A3524"/>
  </g>
  <path d="M0 250 C 160 200, 300 310, 460 250 S 700 205, 800 260 L 800 340 C 640 290, 500 380, 340 330 S 120 290, 0 345 Z" fill="url(#r3)" opacity="0.92"/>
</svg>
